<mxfile host="65bd71144e">
    <diagram id="BchvI7WIYb1rJNrYavdt" name="1-b">
        <mxGraphModel dx="832" dy="568" grid="1" gridSize="10" guides="1" tooltips="1" connect="1" arrows="1" fold="1" page="1" pageScale="1" pageWidth="827" pageHeight="1169" math="0" shadow="0">
            <root>
                <mxCell id="0"/>
                <mxCell id="1" parent="0"/>
                <mxCell id="27" value="" style="swimlane;startSize=0;fontSize=15;fillColor=none;" parent="1" vertex="1">
                    <mxGeometry x="144" y="320" width="540" height="360" as="geometry">
                        <mxRectangle x="150" y="290" width="50" height="40" as="alternateBounds"/>
                    </mxGeometry>
                </mxCell>
                <mxCell id="10" value="&lt;font style=&quot;font-size: 15px;&quot;&gt;提供APP&lt;/font&gt;" style="ellipse;whiteSpace=wrap;html=1;fillColor=none;" parent="27" vertex="1">
                    <mxGeometry x="209" y="20" width="110" height="70" as="geometry"/>
                </mxCell>
                <mxCell id="3" value="&lt;font style=&quot;font-size: 15px;&quot;&gt;收取信件、包裹&lt;/font&gt;" style="ellipse;whiteSpace=wrap;html=1;fillColor=none;" parent="27" vertex="1">
                    <mxGeometry x="151" y="110" width="110" height="70" as="geometry"/>
                </mxCell>
                <mxCell id="7" value="&lt;font style=&quot;font-size: 15px;&quot;&gt;發布公告&lt;/font&gt;&lt;span style=&quot;color: rgba(0, 0, 0, 0); font-family: monospace; font-size: 0px; text-align: start;&quot;&gt;%3CmxGraphModel%3E%3Croot%3E%3CmxCell%20id%3D%220%22%2F%3E%3CmxCell%20id%3D%221%22%20parent%3D%220%22%2F%3E%3CmxCell%20id%3D%222%22%20value%3D%22%26lt%3Bfont%20style%3D%26quot%3Bfont-size%3A%2015px%3B%26quot%3B%26gt%3B%E6%94%B6%E5%8F%96%E4%BF%A1%E4%BB%B6%E3%80%81%E5%8C%85%E8%A3%B9%26lt%3B%2Ffont%26gt%3B%22%20style%3D%22ellipse%3BwhiteSpace%3Dwrap%3Bhtml%3D1%3B%22%20vertex%3D%221%22%20parent%3D%221%22%3E%3CmxGeometry%20x%3D%22320%22%20y%3D%2290%22%20width%3D%22120%22%20height%3D%2280%22%20as%3D%22geometry%22%2F%3E%3C%2FmxCell%3E%3C%2Froot%3E%3C%2FmxGraphModel%3E&lt;/span&gt;" style="ellipse;whiteSpace=wrap;html=1;fillColor=none;" parent="27" vertex="1">
                    <mxGeometry x="306" y="100" width="110" height="70" as="geometry"/>
                </mxCell>
                <mxCell id="8" value="&lt;font style=&quot;font-size: 15px;&quot;&gt;編輯公告&lt;/font&gt;" style="ellipse;whiteSpace=wrap;html=1;fillColor=none;" parent="27" vertex="1">
                    <mxGeometry x="346" y="240" width="110" height="70" as="geometry"/>
                </mxCell>
                <mxCell id="6" value="&lt;font style=&quot;font-size: 15px;&quot;&gt;回應社區公告&lt;/font&gt;" style="ellipse;whiteSpace=wrap;html=1;fillColor=none;" parent="27" vertex="1">
                    <mxGeometry x="111" y="270" width="110" height="70" as="geometry"/>
                </mxCell>
                <mxCell id="58" value="&lt;font style=&quot;font-size: 15px;&quot;&gt;綁定手機&lt;/font&gt;" style="ellipse;whiteSpace=wrap;html=1;fillColor=none;" parent="27" vertex="1">
                    <mxGeometry x="221" y="220" width="110" height="70" as="geometry"/>
                </mxCell>
                <mxCell id="30" value="&lt;div style=&quot;font-family: Consolas, &amp;quot;Courier New&amp;quot;, monospace; font-size: 14px; line-height: 19px;&quot;&gt;&lt;font style=&quot;&quot; color=&quot;#000000&quot;&gt;噗攏貢公司&lt;/font&gt;&lt;/div&gt;" style="shape=umlActor;verticalLabelPosition=bottom;verticalAlign=top;html=1;outlineConnect=0;fontSize=13;fillColor=none;" parent="1" vertex="1">
                    <mxGeometry x="59" y="485" width="30" height="60" as="geometry"/>
                </mxCell>
                <mxCell id="31" value="&lt;div style=&quot;font-family: Consolas, &amp;quot;Courier New&amp;quot;, monospace; font-size: 14px; line-height: 19px;&quot;&gt;&lt;font style=&quot;&quot; color=&quot;#000000&quot;&gt;委員&lt;/font&gt;&lt;/div&gt;" style="shape=umlActor;verticalLabelPosition=bottom;verticalAlign=top;html=1;outlineConnect=0;fontSize=13;fillColor=none;" parent="1" vertex="1">
                    <mxGeometry x="760" y="345" width="30" height="60" as="geometry"/>
                </mxCell>
                <mxCell id="32" value="&lt;div style=&quot;font-family: Consolas, &amp;quot;Courier New&amp;quot;, monospace; font-size: 14px; line-height: 19px;&quot;&gt;&lt;font style=&quot;&quot; color=&quot;#000000&quot;&gt;主任委員&lt;/font&gt;&lt;/div&gt;" style="shape=umlActor;verticalLabelPosition=bottom;verticalAlign=top;html=1;outlineConnect=0;fontSize=13;fillColor=none;" parent="1" vertex="1">
                    <mxGeometry x="760" y="525" width="30" height="60" as="geometry"/>
                </mxCell>
                <mxCell id="33" value="&lt;div style=&quot;font-family: Consolas, &amp;quot;Courier New&amp;quot;, monospace; font-size: 14px; line-height: 19px;&quot;&gt;&lt;font style=&quot;&quot; color=&quot;#000000&quot;&gt;住戶&lt;/font&gt;&lt;/div&gt;" style="shape=umlActor;verticalLabelPosition=bottom;verticalAlign=top;html=1;outlineConnect=0;fontSize=13;fillColor=none;" parent="1" vertex="1">
                    <mxGeometry x="59" y="340" width="30" height="60" as="geometry"/>
                </mxCell>
                <mxCell id="34" value="&lt;div style=&quot;font-family: Consolas, &amp;quot;Courier New&amp;quot;, monospace; font-size: 14px; line-height: 19px;&quot;&gt;&lt;font style=&quot;&quot; color=&quot;#000000&quot;&gt;警衛&lt;/font&gt;&lt;/div&gt;" style="shape=umlActor;verticalLabelPosition=bottom;verticalAlign=top;html=1;outlineConnect=0;fontSize=13;fillColor=none;" parent="1" vertex="1">
                    <mxGeometry x="59" y="620" width="30" height="60" as="geometry"/>
                </mxCell>
                <mxCell id="44" value="" style="endArrow=none;html=1;fontSize=13;exitX=0.036;exitY=0.737;exitDx=0;exitDy=0;exitPerimeter=0;" parent="1" source="10" target="30" edge="1">
                    <mxGeometry width="50" height="50" relative="1" as="geometry">
                        <mxPoint x="389" y="520" as="sourcePoint"/>
                        <mxPoint x="439" y="470" as="targetPoint"/>
                    </mxGeometry>
                </mxCell>
                <mxCell id="46" value="" style="endArrow=none;html=1;fontSize=13;entryX=0;entryY=0.5;entryDx=0;entryDy=0;" parent="1" source="33" target="3" edge="1">
                    <mxGeometry width="50" height="50" relative="1" as="geometry">
                        <mxPoint x="169" y="514.36" as="sourcePoint"/>
                        <mxPoint x="505" y="500.00102564102565" as="targetPoint"/>
                    </mxGeometry>
                </mxCell>
                <mxCell id="47" value="" style="endArrow=none;html=1;fontSize=13;" parent="1" source="34" target="3" edge="1">
                    <mxGeometry width="50" height="50" relative="1" as="geometry">
                        <mxPoint x="109" y="644.36" as="sourcePoint"/>
                        <mxPoint x="445" y="630.0010256410256" as="targetPoint"/>
                    </mxGeometry>
                </mxCell>
                <mxCell id="48" value="" style="endArrow=none;html=1;fontSize=13;entryX=0;entryY=0.5;entryDx=0;entryDy=0;" parent="1" source="33" target="6" edge="1">
                    <mxGeometry width="50" height="50" relative="1" as="geometry">
                        <mxPoint x="203" y="584.36" as="sourcePoint"/>
                        <mxPoint x="539" y="570.0010256410256" as="targetPoint"/>
                    </mxGeometry>
                </mxCell>
                <mxCell id="52" value="" style="endArrow=none;html=1;fontSize=13;exitX=1.007;exitY=0.394;exitDx=0;exitDy=0;exitPerimeter=0;" parent="1" source="7" target="32" edge="1">
                    <mxGeometry width="50" height="50" relative="1" as="geometry">
                        <mxPoint x="473" y="375" as="sourcePoint"/>
                        <mxPoint x="809" y="360.64102564102564" as="targetPoint"/>
                    </mxGeometry>
                </mxCell>
                <mxCell id="54" value="" style="endArrow=none;html=1;fontSize=13;entryX=0;entryY=0.3333333333333333;entryDx=0;entryDy=0;entryPerimeter=0;exitX=1;exitY=1;exitDx=0;exitDy=0;" parent="1" source="8" target="32" edge="1">
                    <mxGeometry width="50" height="50" relative="1" as="geometry">
                        <mxPoint x="459" y="470" as="sourcePoint"/>
                        <mxPoint x="663.62" y="668.7068268890374" as="targetPoint"/>
                    </mxGeometry>
                </mxCell>
                <mxCell id="55" value="" style="endArrow=none;html=1;fontSize=13;exitX=0.996;exitY=0.345;exitDx=0;exitDy=0;exitPerimeter=0;" parent="1" source="7" target="31" edge="1">
                    <mxGeometry width="50" height="50" relative="1" as="geometry">
                        <mxPoint x="499" y="410" as="sourcePoint"/>
                        <mxPoint x="728.23" y="534.3568268890374" as="targetPoint"/>
                    </mxGeometry>
                </mxCell>
                <mxCell id="65" value="" style="endArrow=none;html=1;fontSize=13;entryX=0;entryY=0.5;entryDx=0;entryDy=0;exitX=0.5;exitY=0.5;exitDx=0;exitDy=0;exitPerimeter=0;" parent="1" source="33" target="58" edge="1">
                    <mxGeometry width="50" height="50" relative="1" as="geometry">
                        <mxPoint x="89" y="480" as="sourcePoint"/>
                        <mxPoint x="254.66393243013522" y="555.1842353668142" as="targetPoint"/>
                    </mxGeometry>
                </mxCell>
                <mxCell id="67" value="" style="endArrow=none;html=1;fontSize=13;entryX=0;entryY=0.5;entryDx=0;entryDy=0;" edge="1" parent="1" source="34" target="6">
                    <mxGeometry width="50" height="50" relative="1" as="geometry">
                        <mxPoint x="99" y="649.945652173913" as="sourcePoint"/>
                        <mxPoint x="322.13165975046013" y="500.38276429769894" as="targetPoint"/>
                    </mxGeometry>
                </mxCell>
                <mxCell id="68" value="" style="endArrow=none;html=1;fontSize=13;entryX=0.015;entryY=0.709;entryDx=0;entryDy=0;entryPerimeter=0;exitX=1;exitY=0.3333333333333333;exitDx=0;exitDy=0;exitPerimeter=0;" edge="1" parent="1" source="34" target="7">
                    <mxGeometry width="50" height="50" relative="1" as="geometry">
                        <mxPoint x="99" y="657.9281767955802" as="sourcePoint"/>
                        <mxPoint x="265" y="635" as="targetPoint"/>
                    </mxGeometry>
                </mxCell>
                <mxCell id="69" value="" style="endArrow=none;html=1;fontSize=13;entryX=0;entryY=0;entryDx=0;entryDy=0;" edge="1" parent="1" source="33" target="7">
                    <mxGeometry width="50" height="50" relative="1" as="geometry">
                        <mxPoint x="109" y="667.9281767955802" as="sourcePoint"/>
                        <mxPoint x="275" y="645" as="targetPoint"/>
                    </mxGeometry>
                </mxCell>
            </root>
        </mxGraphModel>
    </diagram>
    <diagram id="dJDw_i-UFbLknXoWrmKp" name="1-d">
        <mxGraphModel dx="1002" dy="568" grid="1" gridSize="10" guides="1" tooltips="1" connect="1" arrows="1" fold="1" page="1" pageScale="1" pageWidth="827" pageHeight="1169" math="0" shadow="0">
            <root>
                <mxCell id="0"/>
                <mxCell id="1" parent="0"/>
                <mxCell id="EhfLitV1x9cqhb7ZJ8RR-1" value="User(使用者)" style="swimlane;fontStyle=1;align=center;verticalAlign=top;childLayout=stackLayout;horizontal=1;startSize=26;horizontalStack=0;resizeParent=1;resizeParentMax=0;resizeLast=0;collapsible=1;marginBottom=0;labelBackgroundColor=none;fontSize=15;fontFamily=Helvetica;fillColor=none;" parent="1" vertex="1">
                    <mxGeometry x="120" y="230" width="180" height="138" as="geometry"/>
                </mxCell>
                <mxCell id="EhfLitV1x9cqhb7ZJ8RR-2" value="user_id (使用者ID)&#10;" style="text;fillColor=none;align=left;verticalAlign=top;spacingLeft=4;spacingRight=4;overflow=hidden;rotatable=0;points=[[0,0.5],[1,0.5]];portConstraint=eastwest;labelBackgroundColor=none;fontSize=15;fontFamily=Helvetica;" parent="EhfLitV1x9cqhb7ZJ8RR-1" vertex="1">
                    <mxGeometry y="26" width="180" height="34" as="geometry"/>
                </mxCell>
                <mxCell id="EhfLitV1x9cqhb7ZJ8RR-4" value="name (姓名)&#10;&#10;phone_numbers (電話)" style="text;fillColor=none;align=left;verticalAlign=top;spacingLeft=4;spacingRight=4;overflow=hidden;rotatable=0;points=[[0,0.5],[1,0.5]];portConstraint=eastwest;labelBackgroundColor=none;fontSize=15;fontFamily=Helvetica;" parent="EhfLitV1x9cqhb7ZJ8RR-1" vertex="1">
                    <mxGeometry y="60" width="180" height="78" as="geometry"/>
                </mxCell>
                <mxCell id="EhfLitV1x9cqhb7ZJ8RR-5" value="Announcement(公告)" style="swimlane;fontStyle=1;align=center;verticalAlign=top;childLayout=stackLayout;horizontal=1;startSize=26;horizontalStack=0;resizeParent=1;resizeParentMax=0;resizeLast=0;collapsible=1;marginBottom=0;labelBackgroundColor=none;fontSize=15;fontFamily=Helvetica;fillColor=none;" parent="1" vertex="1">
                    <mxGeometry x="510" y="238" width="210" height="130" as="geometry"/>
                </mxCell>
                <mxCell id="EhfLitV1x9cqhb7ZJ8RR-6" value="announcement_id(公告編號)" style="text;fillColor=none;align=left;verticalAlign=top;spacingLeft=4;spacingRight=4;overflow=hidden;rotatable=0;points=[[0,0.5],[1,0.5]];portConstraint=eastwest;labelBackgroundColor=none;fontSize=15;fontFamily=Helvetica;" parent="EhfLitV1x9cqhb7ZJ8RR-5" vertex="1">
                    <mxGeometry y="26" width="210" height="34" as="geometry"/>
                </mxCell>
                <mxCell id="EhfLitV1x9cqhb7ZJ8RR-7" value="title(標題)&#10;&#10;content(內容)" style="text;fillColor=none;align=left;verticalAlign=top;spacingLeft=4;spacingRight=4;overflow=hidden;rotatable=0;points=[[0,0.5],[1,0.5]];portConstraint=eastwest;labelBackgroundColor=none;fontSize=15;fontFamily=Helvetica;" parent="EhfLitV1x9cqhb7ZJ8RR-5" vertex="1">
                    <mxGeometry y="60" width="210" height="70" as="geometry"/>
                </mxCell>
                <mxCell id="EhfLitV1x9cqhb7ZJ8RR-8" value="Guard(警衛)" style="swimlane;fontStyle=1;align=center;verticalAlign=top;childLayout=stackLayout;horizontal=1;startSize=26;horizontalStack=0;resizeParent=1;resizeParentMax=0;resizeLast=0;collapsible=1;marginBottom=0;labelBackgroundColor=none;fontSize=15;fontFamily=Helvetica;fillColor=none;" parent="1" vertex="1">
                    <mxGeometry x="127" y="527" width="160" height="100" as="geometry"/>
                </mxCell>
                <mxCell id="EhfLitV1x9cqhb7ZJ8RR-9" value="Guard_id (警衛ID)&#10;" style="text;fillColor=none;align=left;verticalAlign=top;spacingLeft=4;spacingRight=4;overflow=hidden;rotatable=0;points=[[0,0.5],[1,0.5]];portConstraint=eastwest;labelBackgroundColor=none;fontSize=15;fontFamily=Helvetica;" parent="EhfLitV1x9cqhb7ZJ8RR-8" vertex="1">
                    <mxGeometry y="26" width="160" height="34" as="geometry"/>
                </mxCell>
                <mxCell id="EhfLitV1x9cqhb7ZJ8RR-10" value="name (姓名)" style="text;fillColor=none;align=left;verticalAlign=top;spacingLeft=4;spacingRight=4;overflow=hidden;rotatable=0;points=[[0,0.5],[1,0.5]];portConstraint=eastwest;labelBackgroundColor=none;fontSize=15;fontFamily=Helvetica;" parent="EhfLitV1x9cqhb7ZJ8RR-8" vertex="1">
                    <mxGeometry y="60" width="160" height="40" as="geometry"/>
                </mxCell>
                <mxCell id="EhfLitV1x9cqhb7ZJ8RR-11" value="Parcel(包裹)" style="swimlane;fontStyle=1;align=center;verticalAlign=top;childLayout=stackLayout;horizontal=1;startSize=26;horizontalStack=0;resizeParent=1;resizeParentMax=0;resizeLast=0;collapsible=1;marginBottom=0;labelBackgroundColor=none;fontSize=15;fontFamily=Helvetica;fillColor=none;" parent="1" vertex="1">
                    <mxGeometry x="520" y="461" width="190" height="170" as="geometry"/>
                </mxCell>
                <mxCell id="EhfLitV1x9cqhb7ZJ8RR-12" value="Parcel_id(包裹編號)" style="text;fillColor=none;align=left;verticalAlign=top;spacingLeft=4;spacingRight=4;overflow=hidden;rotatable=0;points=[[0,0.5],[1,0.5]];portConstraint=eastwest;labelBackgroundColor=none;fontSize=15;fontFamily=Helvetica;" parent="EhfLitV1x9cqhb7ZJ8RR-11" vertex="1">
                    <mxGeometry y="26" width="190" height="34" as="geometry"/>
                </mxCell>
                <mxCell id="EhfLitV1x9cqhb7ZJ8RR-13" value="recipient(接收者)&#10;&#10;arrival_time(到達時間)&#10;&#10;status(地點)" style="text;fillColor=none;align=left;verticalAlign=top;spacingLeft=4;spacingRight=4;overflow=hidden;rotatable=0;points=[[0,0.5],[1,0.5]];portConstraint=eastwest;labelBackgroundColor=none;fontSize=15;fontFamily=Helvetica;" parent="EhfLitV1x9cqhb7ZJ8RR-11" vertex="1">
                    <mxGeometry y="60" width="190" height="110" as="geometry"/>
                </mxCell>
                <mxCell id="EhfLitV1x9cqhb7ZJ8RR-19" value="*" style="text;html=1;align=center;verticalAlign=middle;resizable=0;points=[];autosize=1;fillColor=none;fontSize=15;fontFamily=Times New Roman;" parent="1" vertex="1">
                    <mxGeometry x="301" y="286" width="30" height="30" as="geometry"/>
                </mxCell>
                <mxCell id="EhfLitV1x9cqhb7ZJ8RR-21" value="" style="endArrow=none;startArrow=none;endFill=0;startFill=0;endSize=8;html=1;verticalAlign=bottom;labelBackgroundColor=none;strokeWidth=3;fontFamily=Times New Roman;fontSize=15;fontColor=#FFFFFF;entryX=0.002;entryY=0.143;entryDx=0;entryDy=0;entryPerimeter=0;exitX=1;exitY=0.221;exitDx=0;exitDy=0;exitPerimeter=0;" parent="1" source="EhfLitV1x9cqhb7ZJ8RR-4" target="EhfLitV1x9cqhb7ZJ8RR-7" edge="1">
                    <mxGeometry width="160" relative="1" as="geometry">
                        <mxPoint x="300" y="302" as="sourcePoint"/>
                        <mxPoint x="510" y="302" as="targetPoint"/>
                    </mxGeometry>
                </mxCell>
                <mxCell id="EhfLitV1x9cqhb7ZJ8RR-22" value="" style="endArrow=none;startArrow=none;endFill=0;startFill=0;endSize=8;html=1;verticalAlign=bottom;labelBackgroundColor=none;strokeWidth=3;fontFamily=Times New Roman;fontSize=15;fontColor=#FFFFFF;entryX=0.455;entryY=-0.016;entryDx=0;entryDy=0;entryPerimeter=0;exitX=0.445;exitY=1.041;exitDx=0;exitDy=0;exitPerimeter=0;" parent="1" source="EhfLitV1x9cqhb7ZJ8RR-4" target="EhfLitV1x9cqhb7ZJ8RR-8" edge="1">
                    <mxGeometry width="160" relative="1" as="geometry">
                        <mxPoint x="270" y="411.22800000000007" as="sourcePoint"/>
                        <mxPoint x="480.3800000000001" y="411" as="targetPoint"/>
                    </mxGeometry>
                </mxCell>
                <mxCell id="EhfLitV1x9cqhb7ZJ8RR-23" value="1" style="text;html=1;align=center;verticalAlign=middle;resizable=0;points=[];autosize=1;fillColor=none;fontSize=15;fontFamily=Times New Roman;" parent="1" vertex="1">
                    <mxGeometry x="210" y="368" width="30" height="30" as="geometry"/>
                </mxCell>
                <mxCell id="EhfLitV1x9cqhb7ZJ8RR-24" value="0..*" style="text;html=1;align=center;verticalAlign=middle;resizable=0;points=[];autosize=1;fillColor=none;fontSize=15;fontFamily=Times New Roman;" parent="1" vertex="1">
                    <mxGeometry x="197" y="505" width="50" height="30" as="geometry"/>
                </mxCell>
                <mxCell id="EhfLitV1x9cqhb7ZJ8RR-25" value="" style="endArrow=none;startArrow=none;endFill=0;startFill=0;endSize=8;html=1;verticalAlign=bottom;labelBackgroundColor=none;strokeWidth=3;fontFamily=Times New Roman;fontSize=15;fontColor=#FFFFFF;exitX=1.015;exitY=0.148;exitDx=0;exitDy=0;exitPerimeter=0;" parent="1" source="EhfLitV1x9cqhb7ZJ8RR-8" target="EhfLitV1x9cqhb7ZJ8RR-11" edge="1">
                    <mxGeometry width="160" relative="1" as="geometry">
                        <mxPoint x="300" y="521" as="sourcePoint"/>
                        <mxPoint x="222.79999999999995" y="539.4000000000001" as="targetPoint"/>
                    </mxGeometry>
                </mxCell>
                <mxCell id="EhfLitV1x9cqhb7ZJ8RR-27" value="1" style="text;html=1;align=center;verticalAlign=middle;resizable=0;points=[];autosize=1;fillColor=none;fontSize=15;fontFamily=Times New Roman;" parent="1" vertex="1">
                    <mxGeometry x="300" y="521" width="30" height="30" as="geometry"/>
                </mxCell>
                <mxCell id="EhfLitV1x9cqhb7ZJ8RR-29" value="0..*" style="text;html=1;align=center;verticalAlign=middle;resizable=0;points=[];autosize=1;fillColor=none;fontSize=15;fontFamily=Times New Roman;" parent="1" vertex="1">
                    <mxGeometry x="484" y="521" width="50" height="30" as="geometry"/>
                </mxCell>
                <mxCell id="EhfLitV1x9cqhb7ZJ8RR-30" value="*" style="text;html=1;align=center;verticalAlign=middle;resizable=0;points=[];autosize=1;fillColor=none;fontSize=15;fontFamily=Times New Roman;" parent="1" vertex="1">
                    <mxGeometry x="483" y="283" width="30" height="30" as="geometry"/>
                </mxCell>
                <mxCell id="EhfLitV1x9cqhb7ZJ8RR-32" value="" style="endArrow=none;startArrow=none;endFill=0;startFill=0;endSize=8;html=1;verticalAlign=bottom;labelBackgroundColor=none;strokeWidth=3;fontFamily=Times New Roman;fontSize=15;fontColor=#FFFFFF;entryX=1;entryY=0;entryDx=0;entryDy=0;exitX=-0.015;exitY=0.991;exitDx=0;exitDy=0;exitPerimeter=0;" parent="1" source="EhfLitV1x9cqhb7ZJ8RR-7" target="EhfLitV1x9cqhb7ZJ8RR-8" edge="1">
                    <mxGeometry width="160" relative="1" as="geometry">
                        <mxPoint x="390.00000000000006" y="350.998" as="sourcePoint"/>
                        <mxPoint x="391.59999999999997" y="508.2000000000001" as="targetPoint"/>
                    </mxGeometry>
                </mxCell>
                <mxCell id="EhfLitV1x9cqhb7ZJ8RR-34" value="1" style="text;html=1;align=center;verticalAlign=middle;resizable=0;points=[];autosize=1;fillColor=none;fontSize=15;fontFamily=Times New Roman;" parent="1" vertex="1">
                    <mxGeometry x="474" y="351" width="30" height="30" as="geometry"/>
                </mxCell>
                <mxCell id="EhfLitV1x9cqhb7ZJ8RR-35" value="0..*" style="text;html=1;align=center;verticalAlign=middle;resizable=0;points=[];autosize=1;fillColor=none;fontSize=15;fontFamily=Times New Roman;rotation=-35;" parent="1" vertex="1">
                    <mxGeometry x="271" y="498" width="50" height="30" as="geometry"/>
                </mxCell>
            </root>
        </mxGraphModel>
    </diagram>
    <diagram id="TuKyHeKT7j3sWM6Ool2x" name="2-b">
        <mxGraphModel dx="1002" dy="568" grid="1" gridSize="10" guides="1" tooltips="1" connect="1" arrows="1" fold="1" page="1" pageScale="1" pageWidth="827" pageHeight="1169" math="0" shadow="0">
            <root>
                <mxCell id="0"/>
                <mxCell id="1" parent="0"/>
                <mxCell id="4TaISlrlGJY7rfE0ve7A-6" value="" style="swimlane;startSize=0;labelBackgroundColor=none;fillColor=none;" parent="1" vertex="1">
                    <mxGeometry x="280" y="180" width="300" height="590" as="geometry">
                        <mxRectangle x="280" y="50" width="50" height="40" as="alternateBounds"/>
                    </mxGeometry>
                </mxCell>
                <mxCell id="4TaISlrlGJY7rfE0ve7A-1" value="&lt;div style=&quot;font-family: Consolas, &amp;quot;Courier New&amp;quot;, monospace; font-size: 14px; line-height: 19px;&quot;&gt;&lt;font color=&quot;#000000&quot;&gt;申請人填寫資料&lt;/font&gt;&lt;/div&gt;" style="ellipse;whiteSpace=wrap;html=1;fillColor=none;" parent="4TaISlrlGJY7rfE0ve7A-6" vertex="1">
                    <mxGeometry x="102" y="170" width="110" height="70" as="geometry"/>
                </mxCell>
                <mxCell id="4TaISlrlGJY7rfE0ve7A-2" value="&lt;div style=&quot;font-family: Consolas, &amp;quot;Courier New&amp;quot;, monospace; font-size: 14px; line-height: 19px;&quot;&gt;&lt;div style=&quot;line-height: 19px;&quot;&gt;&lt;font color=&quot;#000000&quot;&gt;審核申請人資料&lt;/font&gt;&lt;/div&gt;&lt;/div&gt;" style="ellipse;whiteSpace=wrap;html=1;fillColor=none;" parent="4TaISlrlGJY7rfE0ve7A-6" vertex="1">
                    <mxGeometry x="100" y="268" width="110" height="70" as="geometry"/>
                </mxCell>
                <mxCell id="4TaISlrlGJY7rfE0ve7A-3" value="&lt;div style=&quot;font-family: Consolas, &amp;quot;Courier New&amp;quot;, monospace; font-size: 14px; line-height: 19px;&quot;&gt;&lt;div style=&quot;line-height: 19px;&quot;&gt;&lt;font color=&quot;#000000&quot;&gt;資料比對&lt;/font&gt;&lt;/div&gt;&lt;/div&gt;" style="ellipse;whiteSpace=wrap;html=1;fillColor=none;" parent="4TaISlrlGJY7rfE0ve7A-6" vertex="1">
                    <mxGeometry x="104" y="377" width="110" height="70" as="geometry"/>
                </mxCell>
                <mxCell id="4TaISlrlGJY7rfE0ve7A-4" value="&lt;div style=&quot;font-family: Consolas, &amp;quot;Courier New&amp;quot;, monospace; font-size: 14px; line-height: 19px;&quot;&gt;&lt;div style=&quot;line-height: 19px;&quot;&gt;&lt;font color=&quot;#000000&quot;&gt;補助金發放&lt;/font&gt;&lt;/div&gt;&lt;/div&gt;" style="ellipse;whiteSpace=wrap;html=1;fillColor=none;" parent="4TaISlrlGJY7rfE0ve7A-6" vertex="1">
                    <mxGeometry x="104" y="497" width="110" height="70" as="geometry"/>
                </mxCell>
                <mxCell id="4TaISlrlGJY7rfE0ve7A-18" value="&lt;div style=&quot;font-family: Consolas, &amp;quot;Courier New&amp;quot;, monospace; font-size: 14px; line-height: 19px;&quot;&gt;&lt;div style=&quot;line-height: 19px;&quot;&gt;&lt;font color=&quot;#000000&quot;&gt;設計網站&lt;/font&gt;&lt;/div&gt;&lt;/div&gt;" style="ellipse;whiteSpace=wrap;html=1;fillColor=none;" parent="4TaISlrlGJY7rfE0ve7A-6" vertex="1">
                    <mxGeometry x="100" y="40" width="110" height="70" as="geometry"/>
                </mxCell>
                <mxCell id="4TaISlrlGJY7rfE0ve7A-8" value="&lt;font color=&quot;#000000&quot;&gt;政府機關人員&lt;/font&gt;" style="shape=umlActor;verticalLabelPosition=bottom;verticalAlign=top;html=1;outlineConnect=0;labelBackgroundColor=none;" parent="1" vertex="1">
                    <mxGeometry x="170" y="275" width="30" height="60" as="geometry"/>
                </mxCell>
                <mxCell id="4TaISlrlGJY7rfE0ve7A-9" value="&lt;font color=&quot;#000000&quot;&gt;第三方金融機構&lt;/font&gt;" style="shape=umlActor;verticalLabelPosition=bottom;verticalAlign=top;html=1;outlineConnect=0;labelBackgroundColor=none;" parent="1" vertex="1">
                    <mxGeometry x="660" y="280" width="30" height="60" as="geometry"/>
                </mxCell>
                <mxCell id="4TaISlrlGJY7rfE0ve7A-10" value="&lt;font color=&quot;#000000&quot;&gt;健保局&lt;/font&gt;" style="shape=umlActor;verticalLabelPosition=bottom;verticalAlign=top;html=1;outlineConnect=0;labelBackgroundColor=none;" parent="1" vertex="1">
                    <mxGeometry x="660" y="610" width="30" height="60" as="geometry"/>
                </mxCell>
                <mxCell id="4TaISlrlGJY7rfE0ve7A-11" value="&lt;font color=&quot;#000000&quot;&gt;戶政系統&lt;/font&gt;" style="shape=umlActor;verticalLabelPosition=bottom;verticalAlign=top;html=1;outlineConnect=0;labelBackgroundColor=none;" parent="1" vertex="1">
                    <mxGeometry x="670" y="420" width="30" height="60" as="geometry"/>
                </mxCell>
                <mxCell id="4TaISlrlGJY7rfE0ve7A-12" value="&lt;font color=&quot;#000000&quot;&gt;網站設計師&lt;/font&gt;" style="shape=umlActor;verticalLabelPosition=bottom;verticalAlign=top;html=1;outlineConnect=0;labelBackgroundColor=none;" parent="1" vertex="1">
                    <mxGeometry x="170" y="565" width="30" height="60" as="geometry"/>
                </mxCell>
                <mxCell id="4TaISlrlGJY7rfE0ve7A-15" value="&lt;font color=&quot;#000000&quot;&gt;申請人&lt;/font&gt;" style="shape=umlActor;verticalLabelPosition=bottom;verticalAlign=top;html=1;outlineConnect=0;labelBackgroundColor=none;" parent="1" vertex="1">
                    <mxGeometry x="170" y="399" width="30" height="60" as="geometry"/>
                </mxCell>
                <mxCell id="4TaISlrlGJY7rfE0ve7A-20" value="" style="endArrow=none;html=1;exitX=0;exitY=0.5;exitDx=0;exitDy=0;entryX=1;entryY=0.3333333333333333;entryDx=0;entryDy=0;entryPerimeter=0;" parent="1" source="4TaISlrlGJY7rfE0ve7A-4" target="4TaISlrlGJY7rfE0ve7A-8" edge="1">
                    <mxGeometry width="50" height="50" relative="1" as="geometry">
                        <mxPoint x="380" y="490" as="sourcePoint"/>
                        <mxPoint x="250" y="230" as="targetPoint"/>
                    </mxGeometry>
                </mxCell>
                <mxCell id="4TaISlrlGJY7rfE0ve7A-22" value="" style="endArrow=none;html=1;entryX=0.5;entryY=0.5;entryDx=0;entryDy=0;entryPerimeter=0;" parent="1" source="4TaISlrlGJY7rfE0ve7A-2" edge="1" target="4TaISlrlGJY7rfE0ve7A-8">
                    <mxGeometry width="50" height="50" relative="1" as="geometry">
                        <mxPoint x="394" y="722" as="sourcePoint"/>
                        <mxPoint x="210" y="240" as="targetPoint"/>
                    </mxGeometry>
                </mxCell>
                <mxCell id="4TaISlrlGJY7rfE0ve7A-23" value="" style="endArrow=none;html=1;exitX=0;exitY=0;exitDx=0;exitDy=0;entryX=1;entryY=0.3333333333333333;entryDx=0;entryDy=0;entryPerimeter=0;" parent="1" source="4TaISlrlGJY7rfE0ve7A-3" target="4TaISlrlGJY7rfE0ve7A-8" edge="1">
                    <mxGeometry width="50" height="50" relative="1" as="geometry">
                        <mxPoint x="404" y="732" as="sourcePoint"/>
                        <mxPoint x="210" y="280" as="targetPoint"/>
                    </mxGeometry>
                </mxCell>
                <mxCell id="4TaISlrlGJY7rfE0ve7A-24" value="" style="endArrow=none;html=1;exitX=1;exitY=0.3333333333333333;exitDx=0;exitDy=0;exitPerimeter=0;" parent="1" source="4TaISlrlGJY7rfE0ve7A-9" target="4TaISlrlGJY7rfE0ve7A-3" edge="1">
                    <mxGeometry width="50" height="50" relative="1" as="geometry">
                        <mxPoint x="414" y="742" as="sourcePoint"/>
                        <mxPoint x="400" y="570" as="targetPoint"/>
                    </mxGeometry>
                </mxCell>
                <mxCell id="4TaISlrlGJY7rfE0ve7A-25" value="" style="endArrow=none;html=1;entryX=1;entryY=0.5;entryDx=0;entryDy=0;" parent="1" source="4TaISlrlGJY7rfE0ve7A-11" target="4TaISlrlGJY7rfE0ve7A-3" edge="1">
                    <mxGeometry width="50" height="50" relative="1" as="geometry">
                        <mxPoint x="424" y="752" as="sourcePoint"/>
                        <mxPoint x="250" y="370" as="targetPoint"/>
                    </mxGeometry>
                </mxCell>
                <mxCell id="4TaISlrlGJY7rfE0ve7A-26" value="" style="endArrow=none;html=1;entryX=1;entryY=0.5;entryDx=0;entryDy=0;" parent="1" target="4TaISlrlGJY7rfE0ve7A-3" edge="1">
                    <mxGeometry width="50" height="50" relative="1" as="geometry">
                        <mxPoint x="650" y="640" as="sourcePoint"/>
                        <mxPoint x="260" y="380" as="targetPoint"/>
                    </mxGeometry>
                </mxCell>
                <mxCell id="4TaISlrlGJY7rfE0ve7A-28" value="" style="endArrow=none;html=1;entryX=0.993;entryY=0.64;entryDx=0;entryDy=0;entryPerimeter=0;" parent="1" source="4TaISlrlGJY7rfE0ve7A-12" target="4TaISlrlGJY7rfE0ve7A-18" edge="1">
                    <mxGeometry width="50" height="50" relative="1" as="geometry">
                        <mxPoint x="444" y="772" as="sourcePoint"/>
                        <mxPoint x="270" y="390" as="targetPoint"/>
                    </mxGeometry>
                </mxCell>
                <mxCell id="4TaISlrlGJY7rfE0ve7A-29" value="" style="endArrow=none;html=1;exitX=0;exitY=0.5;exitDx=0;exitDy=0;" parent="1" source="4TaISlrlGJY7rfE0ve7A-1" target="4TaISlrlGJY7rfE0ve7A-15" edge="1">
                    <mxGeometry width="50" height="50" relative="1" as="geometry">
                        <mxPoint x="454" y="782" as="sourcePoint"/>
                        <mxPoint x="220" y="460" as="targetPoint"/>
                    </mxGeometry>
                </mxCell>
                <mxCell id="4TaISlrlGJY7rfE0ve7A-31" value="" style="endArrow=none;html=1;entryX=0.975;entryY=0.277;entryDx=0;entryDy=0;exitX=1;exitY=0.3333333333333333;exitDx=0;exitDy=0;exitPerimeter=0;entryPerimeter=0;" parent="1" source="4TaISlrlGJY7rfE0ve7A-9" target="4TaISlrlGJY7rfE0ve7A-1" edge="1">
                    <mxGeometry width="50" height="50" relative="1" as="geometry">
                        <mxPoint x="210" y="580" as="sourcePoint"/>
                        <mxPoint x="300" y="420" as="targetPoint"/>
                    </mxGeometry>
                </mxCell>
                <mxCell id="4TaISlrlGJY7rfE0ve7A-32" value="" style="endArrow=none;html=1;entryX=1;entryY=0.5;entryDx=0;entryDy=0;" parent="1" target="4TaISlrlGJY7rfE0ve7A-1" edge="1">
                    <mxGeometry width="50" height="50" relative="1" as="geometry">
                        <mxPoint x="650" y="640" as="sourcePoint"/>
                        <mxPoint x="310" y="430" as="targetPoint"/>
                    </mxGeometry>
                </mxCell>
                <mxCell id="4TaISlrlGJY7rfE0ve7A-33" value="" style="endArrow=none;html=1;exitX=1;exitY=0.3333333333333333;exitDx=0;exitDy=0;exitPerimeter=0;" parent="1" source="4TaISlrlGJY7rfE0ve7A-9" edge="1" target="4TaISlrlGJY7rfE0ve7A-4">
                    <mxGeometry width="50" height="50" relative="1" as="geometry">
                        <mxPoint x="220" y="518.4713114754098" as="sourcePoint"/>
                        <mxPoint x="380" y="710" as="targetPoint"/>
                    </mxGeometry>
                </mxCell>
            </root>
        </mxGraphModel>
    </diagram>
    <diagram id="-PY8xPYcnXY_7cJNO8XB" name="2-d">
        <mxGraphModel dx="832" dy="568" grid="1" gridSize="10" guides="1" tooltips="1" connect="1" arrows="1" fold="1" page="1" pageScale="1" pageWidth="827" pageHeight="1169" math="0" shadow="0">
            <root>
                <mxCell id="0"/>
                <mxCell id="1" parent="0"/>
                <mxCell id="QtM7aMAdn_SS86A0N-tK-5" style="edgeStyle=none;html=1;fontColor=#000000;labelBackgroundColor=none;" parent="1" source="8oswtcLPqKqu-X3mgy1n-1" target="QtM7aMAdn_SS86A0N-tK-1" edge="1">
                    <mxGeometry relative="1" as="geometry"/>
                </mxCell>
                <mxCell id="8oswtcLPqKqu-X3mgy1n-1" value="申請人 Applicant    " style="swimlane;fontStyle=0;childLayout=stackLayout;horizontal=1;startSize=26;fillColor=none;horizontalStack=0;resizeParent=1;resizeParentMax=0;resizeLast=0;collapsible=1;marginBottom=0;labelBackgroundColor=none;fontColor=#000000;" parent="1" vertex="1">
                    <mxGeometry x="70" y="190" width="240" height="130" as="geometry"/>
                </mxCell>
                <mxCell id="8oswtcLPqKqu-X3mgy1n-2" value=" ID number" style="text;strokeColor=none;fillColor=none;align=left;verticalAlign=top;spacingLeft=4;spacingRight=4;overflow=hidden;rotatable=0;points=[[0,0.5],[1,0.5]];portConstraint=eastwest;labelBackgroundColor=none;fontColor=#000000;" parent="8oswtcLPqKqu-X3mgy1n-1" vertex="1">
                    <mxGeometry y="26" width="240" height="26" as="geometry"/>
                </mxCell>
                <mxCell id="8oswtcLPqKqu-X3mgy1n-3" value="Bank code " style="text;strokeColor=none;fillColor=none;align=left;verticalAlign=top;spacingLeft=4;spacingRight=4;overflow=hidden;rotatable=0;points=[[0,0.5],[1,0.5]];portConstraint=eastwest;labelBackgroundColor=none;fontColor=#000000;" parent="8oswtcLPqKqu-X3mgy1n-1" vertex="1">
                    <mxGeometry y="52" width="240" height="26" as="geometry"/>
                </mxCell>
                <mxCell id="8oswtcLPqKqu-X3mgy1n-4" value="Bank account&#10;&#10;Health card number" style="text;strokeColor=none;fillColor=none;align=left;verticalAlign=top;spacingLeft=4;spacingRight=4;overflow=hidden;rotatable=0;points=[[0,0.5],[1,0.5]];portConstraint=eastwest;labelBackgroundColor=none;fontColor=#000000;" parent="8oswtcLPqKqu-X3mgy1n-1" vertex="1">
                    <mxGeometry y="78" width="240" height="52" as="geometry"/>
                </mxCell>
                <mxCell id="QtM7aMAdn_SS86A0N-tK-1" value="政府機關 Government agency " style="swimlane;fontStyle=0;childLayout=stackLayout;horizontal=1;startSize=26;fillColor=none;horizontalStack=0;resizeParent=1;resizeParentMax=0;resizeLast=0;collapsible=1;marginBottom=0;labelBackgroundColor=none;fontColor=#000000;" parent="1" vertex="1">
                    <mxGeometry x="510" y="190" width="240" height="130" as="geometry"/>
                </mxCell>
                <mxCell id="QtM7aMAdn_SS86A0N-tK-2" value="檢查身分證字號/居留證號是否存在" style="text;strokeColor=none;fillColor=none;align=left;verticalAlign=top;spacingLeft=4;spacingRight=4;overflow=hidden;rotatable=0;points=[[0,0.5],[1,0.5]];portConstraint=eastwest;labelBackgroundColor=none;fontColor=#000000;" parent="QtM7aMAdn_SS86A0N-tK-1" vertex="1">
                    <mxGeometry y="26" width="240" height="26" as="geometry"/>
                </mxCell>
                <mxCell id="QtM7aMAdn_SS86A0N-tK-3" value="檢查金融帳戶是否為申請人" style="text;strokeColor=none;fillColor=none;align=left;verticalAlign=top;spacingLeft=4;spacingRight=4;overflow=hidden;rotatable=0;points=[[0,0.5],[1,0.5]];portConstraint=eastwest;labelBackgroundColor=none;fontColor=#000000;" parent="QtM7aMAdn_SS86A0N-tK-1" vertex="1">
                    <mxGeometry y="52" width="240" height="26" as="geometry"/>
                </mxCell>
                <mxCell id="QtM7aMAdn_SS86A0N-tK-4" value="檢查健保卡號是否正確&#10;&#10;將合格資料寫入 JSON 格式，傳至其他機關&#10;&#10;" style="text;strokeColor=none;fillColor=none;align=left;verticalAlign=top;spacingLeft=4;spacingRight=4;overflow=hidden;rotatable=0;points=[[0,0.5],[1,0.5]];portConstraint=eastwest;labelBackgroundColor=none;fontColor=#000000;" parent="QtM7aMAdn_SS86A0N-tK-1" vertex="1">
                    <mxGeometry y="78" width="240" height="52" as="geometry"/>
                </mxCell>
                <mxCell id="QtM7aMAdn_SS86A0N-tK-6" value="1" style="text;html=1;align=center;verticalAlign=middle;resizable=0;points=[];autosize=1;strokeColor=none;fillColor=none;fontColor=#000000;labelBackgroundColor=none;" parent="1" vertex="1">
                    <mxGeometry x="309" y="232" width="30" height="30" as="geometry"/>
                </mxCell>
                <mxCell id="QtM7aMAdn_SS86A0N-tK-7" value="1..*" style="text;html=1;align=center;verticalAlign=middle;resizable=0;points=[];autosize=1;strokeColor=none;fillColor=none;fontColor=#000000;labelBackgroundColor=none;" parent="1" vertex="1">
                    <mxGeometry x="471" y="232" width="40" height="30" as="geometry"/>
                </mxCell>
                <mxCell id="QtM7aMAdn_SS86A0N-tK-8" value="" style="triangle;whiteSpace=wrap;html=1;labelBackgroundColor=none;fontColor=#000000;rotation=-15;" parent="1" vertex="1">
                    <mxGeometry x="459.71" y="231.17" width="10" height="10" as="geometry"/>
                </mxCell>
            </root>
        </mxGraphModel>
    </diagram>
</mxfile>